HIERARCHY
ROOT pelvis
{
  OFFSET 0 100 0
  CHANNELS 6 Xposition Yposition Zposition Zrotation Xrotation Yrotation
  JOINT pelvis_right_femur
  {
    OFFSET -10.78128 -3.44521 -0.5502486
    CHANNELS 3 Zrotation Xrotation Yrotation
    JOINT right_femur_tibia
    {
      OFFSET -0.8047443 -44.0398 -0.1307829
      CHANNELS 3 Zrotation Xrotation Yrotation
      JOINT right_tibia_foot
      {
        OFFSET 3.006224 -47.83518 -5
        CHANNELS 3 Zrotation Xrotation Yrotation
        End Site
        {
          OFFSET 0 -5 15
        }
      }
    }
  }
  JOINT pelvis_left_femur
  {
    OFFSET 10.78128 -3.44521 -0.5502486
    CHANNELS 3 Zrotation Xrotation Yrotation
    JOINT left_femur_tibia
    {
      OFFSET 0.8047443 -44.0398 -0.1307829
      CHANNELS 3 Zrotation Xrotation Yrotation
      JOINT left_tibia_foot
      {
        OFFSET -4.370144 -48.10324 -4.275266
        CHANNELS 3 Zrotation Xrotation Yrotation
        End Site
        {
          OFFSET 0 -5 15
        }
      }
    }
  }
  JOINT pelvis_spine1
  {
    OFFSET 0 6.468898 -3.129235
    CHANNELS 3 Zrotation Xrotation Yrotation
    JOINT spine1
    {
      OFFSET 0 23.15396 4.99043
      CHANNELS 3 Zrotation Xrotation Yrotation
      JOINT spine2
      {
        OFFSET 0 20.79997 -5.064912
        CHANNELS 3 Zrotation Xrotation Yrotation
        JOINT neck
        {
          OFFSET 0 14.38658 9.616178
          CHANNELS 3 Zrotation Xrotation Yrotation
          End Site
          {
            OFFSET 0 20 0
          }
        }
      }
      JOINT right_manubrium
      {
        OFFSET -5.722621 16.35077 3.967754
        CHANNELS 3 Zrotation Xrotation Yrotation
        JOINT right_clavicle
        {
          OFFSET -13.16364 1.694482 -4.693211
          CHANNELS 3 Zrotation Xrotation Yrotation
          JOINT right_humerus
          {
            OFFSET -28.5034 -0.3100689 -2.792744
            CHANNELS 3 Zrotation Xrotation Yrotation
            JOINT right_radius
            {
              OFFSET -25.15693 0.02248979 -1.271978
              CHANNELS 3 Zrotation Xrotation Yrotation
              End Site
              {
                OFFSET -15 0 0
              }
            }
          }
        }
      }
      JOINT left_manubrium
      {
        OFFSET 5.722621 16.35077 3.967754
        CHANNELS 3 Zrotation Xrotation Yrotation
        JOINT left_clavicle
        {
          OFFSET 13.16364 1.694482 -4.693211
          CHANNELS 3 Zrotation Xrotation Yrotation
          JOINT left_humerus
          {
            OFFSET 29.39168 -1.063119 -2.237045
            CHANNELS 3 Zrotation Xrotation Yrotation
            JOINT left_radius
            {
              OFFSET 24.59957 -0.9528479 0.9047498
              CHANNELS 3 Zrotation Xrotation Yrotation
              End Site
              {
                OFFSET 15 -0 -0
              }
            }
          }
        }
      }
    }
  }
}
MOTION
Frames: 11
Frame Time: 0.0416666666667
-314.3809 33.49968 3185.46 -9.678558 -10.363 -51.2517 2.786455 -4.757015 9.8481 -0 33.24824 -0 13.32348 -10.81935 -13.99598 -2.711698 2.4472 -2.113537 -0 43.48983 -0 -7.917347 -10.45134 16.27619 -1.286631 0.8685471 6.51797 -0.8143967 11.95945 -5.450913 4.070369 21.73311 3.585338 -0.6105791 -9.759088 8.781759 1.29068 -15.65775 10.60222 87.84372 16.1739 -16.5876 -0 0 18.15937 -27.91839 19.91843 11.34132 3.958278 -17.86186 -5.838888 -83.0903 21.59351 8.72221 0 0 -20.72438 -3.956927 1.783619 18.26223
-319.718 33.62236 3190.015 -9.785261 -10.29408 -51.52599 2.964188 -4.361326 9.841192 -0 32.26093 -0 13.09961 -10.80158 -13.79966 -2.597121 2.201588 -2.152367 -0 44.75465 -0 -8.04569 -10.11357 16.41314 -1.165412 0.8462137 6.580711 -0.7955983 12.01906 -5.375821 4.099298 21.77396 3.549631 -0.5330845 -9.799468 8.714596 1.290987 -15.69289 10.65657 87.80806 16.06121 -16.58822 -0 0 18.08678 -27.79554 19.80487 11.19266 4.002236 -17.90731 -5.830211 -83.32358 21.53475 8.884448 0 0 -20.60472 -3.856479 1.973675 18.09393
-325.0825 33.77647 3194.532 -9.898284 -10.19641 -51.88308 3.13975 -3.759664 9.853654 -0 31.45532 -0 12.92809 -10.84306 -13.54161 -2.449455 1.656101 -2.16189 -0 45.96843 -0 -8.186539 -9.744749 16.55754 -1.038219 0.837445 6.69248 -0.7927995 12.07955 -5.272614 4.118447 21.80028 3.527194 -0.4539251 -9.86172 8.647739 1.30219 -15.79582 10.72518 87.68812 15.95797 -16.48203 -0 0 18.1647 -27.71964 19.69599 11.09452 4.019493 -17.90258 -5.806106 -83.63556 21.5191 9.234175 0 0 -20.4233 -3.824774 2.122424 18.03109
-330.4665 33.95704 3199.012 -10.00955 -10.07266 -52.3144 3.29963 -2.988821 9.8794 -0 30.83997 -0 12.82074 -10.95136 -13.23561 -2.273874 0.8356397 -2.134049 -0 47.01828 -0 -8.325044 -9.374249 16.70469 -0.9140918 0.8427707 6.846854 -0.8066022 12.13592 -5.147977 4.126245 21.80996 3.519369 -0.3786818 -9.940793 8.58536 1.318896 -15.96235 10.80268 87.49065 15.87 -16.27261 -0 0 18.39102 -27.70249 19.59817 11.05699 4.013235 -17.85081 -5.767738 -84.0033 21.53777 9.742209 0 0 -20.19772 -3.858247 2.219917 18.06784
-335.864 34.15353 3203.457 -10.1112 -9.927422 -52.80702 3.43067 -2.093324 9.915135 -0 30.41841 -0 12.7881 -11.13255 -12.90009 -2.077564 -0.2125146 -2.064608 -0 47.79805 -0 -8.44524 -9.029834 16.85115 -0.8019717 0.8601141 7.034607 -0.8366736 12.18246 -5.009605 4.122884 21.80158 3.525407 -0.3140926 -10.02975 8.532458 1.334349 -16.18344 10.88191 87.22788 15.79895 -15.96907 -0 0 18.75512 -27.74988 19.51623 11.08474 3.987843 -17.75584 -5.715948 -84.40051 21.57898 10.36871 0 0 -19.94448 -3.947533 2.258108 18.19005
-341.2717 34.35209 3207.873 -10.19684 -9.766609 -53.34477 3.522176 -1.12393 9.961224 -0 30.19702 -0 12.83759 -11.38742 -12.55681 -1.870008 -1.420519 -1.955248 -0 48.22644 -0 -8.533333 -8.734626 16.99346 -0.709505 0.8853878 7.244187 -0.8815106 12.21347 -4.865687 4.110231 21.77467 3.54284 -0.2670326 -10.12111 8.494339 1.342271 -16.44549 10.95492 86.91677 15.74291 -15.58645 -0 0 19.23782 -27.8593 19.45327 11.17575 3.947639 -17.62156 -5.651391 -84.8004 21.63171 11.06835 0 0 -19.67683 -4.080019 2.232175 18.37938
-346.6888 34.53865 3212.267 -10.26239 -9.597125 -53.90939 3.567182 -0.1355895 10.02099 -0 30.18827 -0 12.97169 -11.70792 -12.22903 -1.663321 -2.705022 -1.814266 -0 48.26301 -0 -8.580374 -8.505141 17.12693 -0.642447 0.9135061 7.462597 -0.938376 12.22424 -4.724413 4.091413 21.72989 3.56808 -0.2432655 -10.20797 8.475746 1.338585 -16.73094 11.01418 86.57781 15.69806 -15.14595 -0 0 19.81148 -28.01962 19.41077 11.32116 3.895946 -17.45218 -5.574996 -85.17822 21.68858 11.79491 0 0 -19.40448 -4.242459 2.141625 18.61716
-352.1173 34.7021 3216.647 -10.30652 -9.426935 -54.4817 3.562725 0.8153263 10.09872 -0 30.40853 -0 13.18651 -12.07526 -11.93953 -1.47221 -3.974923 -1.655579 -0 47.91713 -0 -8.583583 -8.350692 17.24492 -0.6046913 0.9395462 7.67652 -1.003482 12.21207 -4.59354 4.07014 21.66941 3.597114 -0.2463068 -10.28461 8.479848 1.322557 -17.01941 11.0538 86.23358 15.66084 -14.67447 -0 0 20.44053 -28.21293 19.38929 11.50652 3.834682 -17.25309 -5.488645 -85.5127 21.74696 12.50447 0 0 -19.13518 -4.422922 1.990847 18.8869
-357.5604 34.83678 3221.023 -10.33066 -9.26515 -55.04257 3.509444 1.674326 10.19708 -0 30.8717 -0 13.47103 -12.46073 -11.70871 -1.313022 -5.140556 -1.496268 -0 47.24627 -0 -8.546137 -8.27401 17.33905 -0.5985707 0.9597837 7.873382 -1.072398 12.17708 -4.480068 4.049903 21.59709 3.626197 -0.2766991 -10.34654 8.507397 1.29704 -17.28941 11.07051 85.90709 15.62994 -14.20316 -0 0 21.08318 -28.41816 19.38915 11.71413 3.764593 -17.03205 -5.395848 -85.78652 21.80845 13.15724 0 0 -18.877 -4.611748 1.78898 19.17525
-363.0214 34.94353 3225.402 -10.33874 -9.121626 -55.57382 3.411064 2.392079 10.315 -0 31.58096 -0 13.80748 -12.82933 -11.55285 -1.201632 -6.122672 -1.353347 -0 46.34308 -0 -8.475751 -8.272678 17.40022 -0.6249751 0.9723863 8.042108 -1.140554 12.12243 -4.390006 4.033197 21.5183 3.652478 -0.3318695 -10.3903 8.556346 1.267761 -17.52063 11.0641 85.61988 15.60721 -13.76483 -0 0 21.69466 -28.61531 19.41082 11.92599 3.686002 -16.79993 -5.302098 -85.98627 21.87694 13.71844 0 0 -18.64034 -4.801516 1.549156 19.47155
-368.5025 35.02906 3229.787 -10.33638 -9.005794 -56.05899 3.274129 2.927161 10.44659 -0 32.52149 -0 14.17259 -13.14539 -11.48271 -1.150529 -6.859581 -1.240625 -0 45.31488 -0 -8.382674 -8.340844 17.42018 -0.6830477 0.9776356 8.173492 -1.203708 12.05405 -4.328227 4.020994 21.43936 3.674457 -0.4065667 -10.41342 8.622081 1.241871 -17.69636 11.03725 85.39014 15.59745 -13.39063 -0 0 22.23169 -28.78891 19.45477 12.12655 3.59979 -16.57072 -5.214667 -86.10238 21.95634 14.15926 0 0 -18.43853 -4.986338 1.287322 19.76661
